<svg width="23" height="20" viewBox="0 0 23 20" fill="none" xmlns="http://www.w3.org/2000/svg">
<path d="M8.23608 16.804L8.23685 16.8047C8.95849 17.3971 9.77591 18.0683 10.6237 18.7825C10.8667 18.9876 11.1779 19.1 11.5 19.1C11.8219 19.1 12.1333 18.9876 12.3761 18.7829C13.2258 18.067 14.0445 17.3947 14.7675 16.8013L14.7675 16.8013L14.7739 16.796C16.8842 15.0633 18.7164 13.559 19.9931 12.0746C21.4253 10.4098 22.1 8.82126 22.1 7.08032C22.1 5.3941 21.4999 3.83504 20.4065 2.6924L20.3342 2.76153L20.4065 2.69239C19.2999 1.53608 17.7817 0.9 16.1336 0.9C14.8998 0.9 13.7687 1.27625 12.7744 2.01714C12.3061 2.36605 11.8796 2.78742 11.5 3.2747C11.1206 2.78741 10.6939 2.36604 10.2258 2.01715L10.2258 2.01714C9.23145 1.27625 8.10037 0.9 6.86652 0.9C5.21832 0.9 3.70029 1.53608 2.59369 2.69239L2.59369 2.6924C1.5003 3.83503 0.9 5.3941 0.9 7.08032C0.9 8.82127 1.57482 10.4098 3.00701 12.0748L3.08282 12.0096L3.00702 12.0748C4.28412 13.5594 6.11707 15.0642 8.22842 16.7977L8.2324 16.801L8.23316 16.8016L8.23608 16.804ZM4.10568 11.1882L4.02987 11.2534L4.10568 11.1882C2.8714 9.75337 2.32999 8.48859 2.32999 7.08032C2.32999 5.73961 2.79775 4.51671 3.64246 3.63395C4.47442 2.7647 5.61853 2.28516 6.86652 2.28516C7.778 2.28516 8.6141 2.56393 9.35375 3.11494C10.0146 3.60732 10.4765 4.23135 10.748 4.66987L10.748 4.66989C10.9085 4.92886 11.1904 5.08228 11.5 5.08228C11.8096 5.08228 12.0915 4.92886 12.252 4.66989C12.5237 4.23135 12.9856 3.60731 13.6463 3.11493C14.3859 2.56393 15.222 2.28516 16.1336 2.28516C17.3815 2.28516 18.5257 2.7647 19.3575 3.63395C20.2023 4.51671 20.67 5.73961 20.67 7.08032C20.67 8.48859 20.1286 9.75337 18.8945 11.1882C17.6983 12.5788 15.9169 14.0416 13.8427 15.7448C13.1351 16.3256 12.3352 16.9824 11.4984 17.6838C10.6664 16.9837 9.86776 16.328 9.16164 15.7482L9.16079 15.7475L9.15779 15.7451C9.15765 15.745 9.15751 15.7449 9.15736 15.7447C7.08313 14.0417 5.30174 12.5787 4.10568 11.1882Z" fill="#202020" stroke="#202020" stroke-width="0.5"/>
</svg>
