<svg width="16" height="16" viewBox="0 0 16 16" fill="none" xmlns="http://www.w3.org/2000/svg">
<path d="M15.8486 15.1295L11.7177 11.0646C12.7994 9.8893 13.4641 8.33495 13.4641 6.62455C13.4636 2.96568 10.4499 0 6.732 0C3.01413 0 0.000427246 2.96568 0.000427246 6.62455C0.000427246 10.2834 3.01413 13.2491 6.732 13.2491C8.33838 13.2491 9.81172 12.6935 10.969 11.7697L15.116 15.8507C15.318 16.0498 15.6461 16.0498 15.8481 15.8507C16.0507 15.6517 16.0507 15.3286 15.8486 15.1295ZM6.732 12.2299C3.58628 12.2299 1.03618 9.72029 1.03618 6.62455C1.03618 3.52881 3.58628 1.01923 6.732 1.01923C9.87776 1.01923 12.4278 3.52881 12.4278 6.62455C12.4278 9.72029 9.87776 12.2299 6.732 12.2299Z" fill="#BFBFBF"/>
</svg>
